<svg width="140" height="40" viewBox="0 0 140 40" fill="none" xmlns="http://www.w3.org/2000/svg">
  <rect width="40" height="40" rx="8" fill="#4F5DFF"/>
  <path d="M12 12H28V16H12V12Z" fill="white"/>
  <path d="M12 18H28V22H12V18Z" fill="white"/>
  <path d="M12 24H28V28H12V24Z" fill="white"/>
  <path d="M50 15.4V28H53.6V23.2H58.8V28H62.4V15.4H58.8V20.2H53.6V15.4H50Z" fill="#1F2937"/>
  <path d="M64.8008 15.4V28H68.4008V15.4H64.8008Z" fill="#1F2937"/>
  <path d="M78.1914 15.4H74.5914V28H78.1914V23.8L79.9914 21.7L83.3914 28H87.5914L82.1914 18.4L87.1914 15.4H82.7914L78.1914 19.2V15.4Z" fill="#1F2937"/>
  <path d="M88.1992 15.4V28H91.7992V15.4H88.1992Z" fill="#1F2937"/>
  <path d="M94.2 15.4V28H97.8V23.2H103V28H106.6V15.4H103V20.2H97.8V15.4H94.2Z" fill="#1F2937"/>
  <path d="M108.602 21.7C108.602 26.1 111.802 28.3 115.002 28.3C118.202 28.3 121.402 26.1 121.402 21.7C121.402 17.3 118.202 15.1 115.002 15.1C111.802 15.1 108.602 17.3 108.602 21.7ZM112.302 21.7C112.302 19.1 113.502 18.2 115.002 18.2C116.502 18.2 117.702 19.1 117.702 21.7C117.702 24.3 116.502 25.2 115.002 25.2C113.502 25.2 112.302 24.3 112.302 21.7Z" fill="#1F2937"/>
  <path d="M123.195 28H126.795V15.4H123.195V28Z" fill="#1F2937"/>
  <path d="M136.184 22.7H132.584V15.4H129.084V28H132.584V25.6H136.184V28H139.784V15.4H136.184V22.7Z" fill="#1F2937"/>
</svg>