<?xml version="1.0" encoding="utf-8"?>
<svg viewBox="0 0 304 104" xmlns="http://www.w3.org/2000/svg">
  <ellipse style="fill: rgb(46, 142, 255);" cx="52" cy="52" rx="50" ry="50"/>
  <path d="M 117.937 55.788 L 107.727 53.946 C 108.875 49.835 110.851 46.792 113.653 44.817 C 116.456 42.842 120.62 41.855 126.145 41.855 C 131.163 41.855 134.9 42.448 137.356 43.636 C 139.812 44.824 141.54 46.332 142.541 48.161 C 143.542 49.989 144.042 53.345 144.042 58.231 L 143.922 71.363 C 143.922 75.1 144.103 77.856 144.463 79.631 C 144.823 81.406 145.497 83.308 146.485 85.337 L 135.354 85.337 C 135.061 84.589 134.701 83.482 134.273 82.014 C 134.087 81.346 133.953 80.906 133.872 80.692 C 131.951 82.56 129.896 83.962 127.706 84.897 C 125.518 85.831 123.182 86.298 120.7 86.298 C 116.322 86.298 112.872 85.11 110.35 82.734 C 107.828 80.358 106.566 77.356 106.566 73.726 C 106.566 71.323 107.14 69.181 108.288 67.299 C 109.436 65.417 111.044 63.976 113.112 62.975 C 115.181 61.974 118.164 61.1 122.061 60.353 C 127.32 59.365 130.964 58.444 132.992 57.59 L 132.992 56.469 C 132.992 54.307 132.458 52.765 131.39 51.844 C 130.323 50.923 128.308 50.463 125.344 50.463 C 123.342 50.463 121.781 50.856 120.66 51.644 C 119.539 52.431 118.631 53.812 117.937 55.788 Z M 132.992 64.917 C 131.551 65.397 129.269 65.971 126.145 66.639 C 123.022 67.306 120.98 67.96 120.019 68.601 C 118.551 69.641 117.817 70.963 117.817 72.565 C 117.817 74.139 118.405 75.501 119.579 76.649 C 120.753 77.796 122.248 78.37 124.063 78.37 C 126.092 78.37 128.027 77.702 129.869 76.368 C 131.231 75.354 132.125 74.113 132.551 72.645 C 132.845 71.683 132.992 69.855 132.992 67.159 L 132.992 64.917 Z M 151.123 42.816 L 161.493 42.816 L 161.493 48.621 C 165.203 44.11 169.621 41.855 174.746 41.855 C 177.469 41.855 179.831 42.415 181.833 43.536 C 183.835 44.657 185.477 46.352 186.757 48.621 C 188.626 46.352 190.641 44.657 192.803 43.536 C 194.965 42.415 197.274 41.855 199.73 41.855 C 202.854 41.855 205.496 42.488 207.658 43.756 C 209.82 45.024 211.435 46.886 212.503 49.342 C 213.277 51.157 213.664 54.093 213.664 58.15 L 213.664 85.337 L 202.413 85.337 L 202.413 61.033 C 202.413 56.815 202.026 54.093 201.252 52.865 C 200.211 51.263 198.609 50.463 196.447 50.463 C 194.873 50.463 193.391 50.943 192.003 51.904 C 190.615 52.865 189.614 54.273 189 56.129 C 188.386 57.983 188.079 60.913 188.079 64.917 L 188.079 85.337 L 176.828 85.337 L 176.828 62.034 C 176.828 57.896 176.628 55.227 176.227 54.026 C 175.827 52.825 175.207 51.931 174.365 51.344 C 173.525 50.756 172.384 50.463 170.942 50.463 C 169.207 50.463 167.645 50.93 166.257 51.864 C 164.869 52.798 163.875 54.146 163.275 55.908 C 162.675 57.67 162.374 60.593 162.374 64.677 L 162.374 85.337 L 151.123 85.337 L 151.123 42.816 Z M 258.028 85.337 L 247.578 85.337 L 247.578 79.091 C 245.843 81.519 243.794 83.328 241.432 84.516 C 239.07 85.704 236.687 86.298 234.285 86.298 C 229.401 86.298 225.217 84.329 221.733 80.392 C 218.249 76.454 216.507 70.962 216.507 63.916 C 216.507 56.709 218.202 51.23 221.592 47.48 C 224.982 43.73 229.267 41.855 234.445 41.855 C 239.197 41.855 243.307 43.83 246.777 47.78 L 246.777 26.64 L 258.028 26.64 L 258.028 85.337 Z M 227.999 63.155 C 227.999 67.693 228.626 70.976 229.88 73.005 C 231.696 75.941 234.232 77.409 237.488 77.409 C 240.078 77.409 242.28 76.308 244.094 74.106 C 245.91 71.904 246.817 68.614 246.817 64.236 C 246.817 59.351 245.936 55.834 244.174 53.686 C 242.413 51.537 240.158 50.463 237.408 50.463 C 234.739 50.463 232.503 51.524 230.701 53.646 C 228.9 55.768 227.999 58.937 227.999 63.155 Z M 262.911 37.05 L 262.911 26.64 L 274.162 26.64 L 274.162 37.05 L 262.911 37.05 Z M 262.911 85.337 L 262.911 42.816 L 274.162 42.816 L 274.162 85.337 L 262.911 85.337 Z M 301.315 42.816 L 301.315 51.784 L 293.627 51.784 L 293.627 68.921 C 293.627 72.391 293.701 74.413 293.848 74.987 C 293.995 75.561 294.329 76.034 294.849 76.408 C 295.369 76.782 296.003 76.969 296.75 76.969 C 297.792 76.969 299.3 76.608 301.275 75.888 L 302.236 84.616 C 299.62 85.737 296.657 86.298 293.347 86.298 C 291.319 86.298 289.49 85.957 287.862 85.277 C 286.234 84.596 285.039 83.715 284.278 82.634 C 283.518 81.553 282.991 80.092 282.697 78.25 C 282.457 76.942 282.336 74.299 282.336 70.322 L 282.336 51.784 L 277.171 51.784 L 277.171 42.816 L 282.336 42.816 L 282.336 34.367 L 293.627 27.801 L 293.627 42.816 L 301.315 42.816 Z" style="fill: rgb(63, 82, 153);"/>
  <path d="M 27.125 18.631 C 25.982 18.859 25.52 19.108 24.377 20.082 C 22.504 21.678 22.431 21.989 22.31 30.3 C 22.164 38.362 22.212 38.57 24.208 40.289 C 25.326 41.222 25.739 41.43 27.101 41.72 C 30.02 42.362 33.11 42.051 35.055 40.953 C 36.685 40.041 37.366 38.943 37.974 36.248 L 38.534 33.844 L 40.139 33.699 C 41.014 33.637 43.957 33.574 46.682 33.574 L 51.595 33.574 L 47.898 38.28 C 37.464 51.648 25.763 65.887 19.44 73.016 C 17.883 74.758 17.566 75.255 17.226 76.54 C 16.691 78.426 16.691 79.297 17.226 81.244 C 17.615 82.654 17.761 82.903 19.001 83.96 C 20.096 84.892 20.582 85.162 21.628 85.39 C 23.452 85.763 79.397 85.763 81.003 85.39 C 82.414 85.079 83.776 84.292 84.506 83.359 C 85.381 82.281 85.819 80.581 86.135 77.099 C 86.28 75.441 86.622 72.395 86.889 70.322 C 87.278 67.255 87.303 66.363 87.084 65.556 C 86.427 63.255 84.822 61.866 82.073 61.264 C 80.2 60.85 78.764 60.85 76.6 61.264 C 75.067 61.575 74.752 61.721 73.487 62.799 C 72.1 63.98 72.076 64.021 71.468 66.239 C 71.127 67.483 70.762 68.83 70.689 69.244 C 70.52 69.97 70.494 70.011 69.279 70.135 C 67.308 70.343 52.568 70.55 52.568 70.384 C 52.568 69.887 71.419 46.363 80.151 35.958 C 85.479 29.616 86.28 28.538 86.67 27.356 C 87.205 25.698 87.23 24.725 86.718 22.797 C 86.354 21.45 86.184 21.18 84.943 20.103 C 83.8 19.129 83.362 18.879 82.243 18.652 C 80.2 18.238 29.121 18.216 27.125 18.631 Z" stroke="none" style="fill: rgb(255, 255, 255); transform-origin: 52.023px 52.03px;" transform="matrix(1, 0.000018, -0.000018, 1, 0, 0)"/>
</svg>