<?xml version="1.0" encoding="utf-8"?>
<svg viewBox="0 0 104 104" xmlns="http://www.w3.org/2000/svg">
  <ellipse style="fill: rgb(46, 142, 255);" cx="52" cy="52" rx="50" ry="50"/>
  <path d="M 27.102 18.631 C 25.959 18.859 25.497 19.108 24.354 20.082 C 22.481 21.678 22.408 21.989 22.287 30.3 C 22.141 38.362 22.189 38.57 24.185 40.289 C 25.303 41.222 25.716 41.43 27.078 41.72 C 29.997 42.362 33.087 42.051 35.032 40.953 C 36.662 40.041 37.343 38.943 37.951 36.248 L 38.511 33.844 L 40.116 33.699 C 40.991 33.637 43.934 33.574 46.659 33.574 L 51.572 33.574 L 47.875 38.28 C 37.441 51.648 25.74 65.887 19.417 73.016 C 17.86 74.758 17.543 75.255 17.203 76.54 C 16.668 78.426 16.668 79.297 17.203 81.244 C 17.592 82.654 17.738 82.903 18.978 83.96 C 20.073 84.892 20.559 85.162 21.605 85.39 C 23.429 85.763 79.374 85.763 80.98 85.39 C 82.391 85.079 83.753 84.292 84.483 83.359 C 85.358 82.281 85.796 80.581 86.112 77.099 C 86.257 75.441 86.599 72.395 86.866 70.322 C 87.255 67.255 87.28 66.363 87.061 65.556 C 86.404 63.255 84.799 61.866 82.05 61.264 C 80.177 60.85 78.741 60.85 76.577 61.264 C 75.044 61.575 74.729 61.721 73.464 62.799 C 72.077 63.98 72.053 64.021 71.445 66.239 C 71.104 67.483 70.739 68.83 70.666 69.244 C 70.497 69.97 70.471 70.011 69.256 70.135 C 67.285 70.343 52.545 70.55 52.545 70.384 C 52.545 69.887 71.396 46.363 80.128 35.958 C 85.456 29.616 86.257 28.538 86.647 27.356 C 87.182 25.698 87.207 24.725 86.695 22.797 C 86.331 21.45 86.161 21.18 84.92 20.103 C 83.777 19.129 83.339 18.879 82.22 18.652 C 80.177 18.238 29.098 18.216 27.102 18.631 Z" stroke="none" style="fill: rgb(255, 255, 255); transform-box: fill-box; transform-origin: 50% 50%;" transform="matrix(0.999999, 0.00124, -0.00124, 0.999999, 0, 0)"/>
</svg>